# xmcd CD database file
#
# Track frame offsets:
#	150
#	18060
#	38160
#	62205
#	82224
#	103963
#	123367
#	139313
#	164746
#	186577
#	210878
#	230963
#
# Disc length: 3569 seconds
#
# Revision: 0
# Processed by: cddbd v1.5.2PL0 Copyright (c) Steve Scherf et al.
# Submitted via: CDex 1.70beta2
#
DISCID=b40def0c
DTITLE=[re:jazz] - EXPANSION
DYEAR=2007
DGENRE=Jazz
TTITLE0=[re:jazz] - THEME
TTITLE1=[re:jazz] feat. Tobias Kremer Big Band  - PEOPLE HOLD ON
TTITLE2=[re:jazz] - NOT ABOUT ME
TTITLE3=[re:jazz] feat. Ack van Rooyen - BACK HOME
TTITLE4=[re:jazz] - PROMISED LAND
TTITLE5=[re:jazz] feat. Ernesto - TOO MANY HOLES
TTITLE6=[re:jazz] - ROCK IT
TTITLE7=[re:jazz] - STEWED
TTITLE8=[re:jazz] feat. Ack van Rooyen - FINALLY
TTITLE9=[re:jazz] feat. Alice Russel - GABRIELLE
TTITLE10=[re:jazz] - RETURN TO DAMARA
TTITLE11=[re:jazz] - PLASTIC DREAMS
EXTD=YEAR: 2007
EXTT0=
EXTT1=
EXTT2=
EXTT3=
EXTT4=
EXTT5=
EXTT6=
EXTT7=
EXTT8=
EXTT9=
EXTT10=
EXTT11=
PLAYORDER=
